<svg xmlns="http://www.w3.org/2000/svg" width="1600" height="900" viewBox="0 0 1600 900">
  <rect width="1600" height="900" fill="#FCFCFA"/>
  <g opacity=".35" stroke="#D6C7A1" stroke-width=".6" fill="none">
    <path d="M0,120 C200,80 400,160 600,120 S1000,80 1200,120 1400,160 1600,120"/>
    <path d="M0,300 C200,260 400,340 600,300 S1000,260 1200,300 1400,340 1600,300"/>
    <path d="M0,480 C200,440 400,520 600,480 S1000,440 1200,480 1400,520 1600,480"/>
    <path d="M0,660 C200,620 400,700 600,660 S1000,620 1200,660 1400,700 1600,660"/>
    <path d="M120,0 C80,200 160,400 120,600 S80,1000 120,1200"/>
    <path d="M420,0 C380,200 460,400 420,600 S380,1000 420,1200"/>
    <path d="M720,0 C680,200 760,400 720,600 S680,1000 720,1200"/>
    <path d="M1020,0 C980,200 1060,400 1020,600 S980,1000 1020,1200"/>
    <path d="M1320,0 C1280,200 1360,400 1320,600 S1280,1000 1320,1200"/>
  </g>
</svg>